<svg width="12" height="12" viewBox="0 0 12 12" fill="none" xmlns="http://www.w3.org/2000/svg">
    <path d="M6.84215 0.721267C6.85011 0.770368 6.85379 0.820059 6.85315 0.869777L6.85315 9.33554L6.93901 9.15094C7.02441 8.9705 7.14064 8.80635 7.28244 8.66583L9.65645 6.29182C9.95492 5.97916 10.4351 5.92662 10.7941 6.16733C11.1767 6.44747 11.2597 6.98471 10.9796 7.36732C10.957 7.39823 10.9323 7.42761 10.9057 7.45522L6.61274 11.7482C6.27762 12.0837 5.734 12.084 5.3985 11.7489C5.39829 11.7486 5.39804 11.7484 5.39783 11.7482L1.10486 7.45522C0.770038 7.11945 0.770788 6.57583 1.10655 6.24098C1.13298 6.21463 1.1611 6.19002 1.19072 6.16733C1.54975 5.92662 2.02989 5.97916 2.32836 6.29182L4.70666 8.66154C4.83277 8.78751 4.93851 8.93235 5.02005 9.09084L5.13596 9.34841L5.13596 0.917026C5.11967 0.478418 5.42606 0.0936079 5.85718 0.0112095C6.32525 -0.0646954 6.76621 0.2532 6.84215 0.721267Z" fill="currentColor"/>
</svg>
