<svg width="14" height="14" viewBox="0 0 14 14" fill="none" xmlns="http://www.w3.org/2000/svg">
    <path d="M8.02083 14H13.4167C13.7387 14 14 13.7387 14 13.4167V10.5C14 10.178 13.7387 9.91667 13.4167 9.91667H8.02083C7.69883 9.91667 7.4375 10.178 7.4375 10.5V13.4167C7.4375 13.7387 7.69883 14 8.02083 14Z" fill="#6C7080"/>
    <path d="M6.5625 9.91667V9.04167L6.5625 4.95833V4.08333V0.583334C6.5625 0.261333 6.30117 0 5.97917 0H0.583333C0.261333 0 0 0.261333 0 0.583334L0 13.4167C0 13.7387 0.261333 14 0.583333 14H5.97917C6.30117 14 6.5625 13.7387 6.5625 13.4167V9.91667Z" fill="#0ECB81"/>
    <path d="M8.02083 4.08325H13.4167C13.7387 4.08325 14 3.82192 14 3.49992V0.583252C14 0.261252 13.7387 -8.15392e-05 13.4167 -8.15392e-05H8.02083C7.69883 -8.15392e-05 7.4375 0.261252 7.4375 0.583252V3.49992C7.4375 3.82192 7.69883 4.08325 8.02083 4.08325Z" fill="#6C7080"/>
    <path d="M8.02083 9.0415H13.4167C13.7387 9.0415 14 8.78017 14 8.45817V5.5415C14 5.2195 13.7387 4.95817 13.4167 4.95817H8.02083C7.69883 4.95817 7.4375 5.2195 7.4375 5.5415V8.45817C7.4375 8.78017 7.69883 9.0415 8.02083 9.0415Z" fill="#6C7080"/>
</svg>
