<svg width="10" height="10" viewBox="0 0 10 10" fill="none" xmlns="http://www.w3.org/2000/svg">
    <path d="M0.207803 7.02527C0.142274 7.08577 0.0899847 7.15917 0.0542229 7.24084C0.0184612 7.32251 0 7.41068 0 7.49983C0 7.58897 0.0184612 7.67714 0.0542229 7.75881C0.0899847 7.84048 0.142274 7.91388 0.207803 7.97439L2.39762 9.84938C2.52362 9.95727 2.68736 10.0107 2.85283 9.99804C3.01829 9.98533 3.17193 9.90749 3.27994 9.78163C3.38794 9.65576 3.44148 9.4922 3.42876 9.32691C3.41604 9.16162 3.33811 9.00815 3.21211 8.90026L2.30643 8.12482H8.12301C8.28895 8.12482 8.44809 8.05897 8.56542 7.94176C8.68276 7.82456 8.74867 7.66559 8.74867 7.49983C8.74867 7.33407 8.68276 7.1751 8.56542 7.05789C8.44809 6.94068 8.28895 6.87483 8.12301 6.87483H2.30643L3.21211 6.0994C3.33811 5.9915 3.41604 5.83803 3.42876 5.67274C3.44148 5.50745 3.38794 5.34389 3.27994 5.21803C3.17193 5.09216 3.01829 5.01432 2.85283 5.00161C2.68736 4.98891 2.52362 5.04238 2.39762 5.15028L0.207803 7.02527Z" fill="currentColor"/>
    <path d="M6.70946 0.218271C6.60161 0.344177 6.54818 0.507688 6.56089 0.672908C6.57361 0.838129 6.65143 0.991558 6.77728 1.09952L7.68296 1.87507L1.86639 1.87507C1.70045 1.87507 1.54131 1.94092 1.42398 2.05813C1.30664 2.17534 1.24072 2.33431 1.24072 2.50007C1.24072 2.66583 1.30664 2.8248 1.42398 2.94201C1.54131 3.05922 1.70045 3.12507 1.86639 3.12507L7.68296 3.12507L6.77728 3.9005C6.7149 3.95392 6.66365 4.0191 6.62648 4.0923C6.58931 4.16551 6.56694 4.24531 6.56064 4.32715C6.55434 4.409 6.56424 4.49128 6.58978 4.5693C6.61531 4.64732 6.65598 4.71955 6.70946 4.78187C6.76294 4.84419 6.82818 4.89538 6.90147 4.93251C6.97475 4.96964 7.05464 4.99199 7.13657 4.99828C7.2185 5.00457 7.30087 4.99468 7.37897 4.96918C7.45708 4.94367 7.52938 4.90304 7.59177 4.84962L9.78159 2.97463C9.8501 2.91594 9.90509 2.84314 9.94279 2.76123C9.98049 2.67932 10 2.59023 10 2.50007C10 2.40992 9.98049 2.32083 9.94279 2.23891C9.90509 2.157 9.8501 2.0842 9.78159 2.02551L7.59177 0.150522C7.46575 0.042676 7.30203 -0.0107694 7.13658 0.00193501C6.97112 0.0146394 6.8175 0.0924535 6.70946 0.218271Z" fill="currentColor"/>
</svg>
