<svg width="14" height="14" viewBox="0 0 14 14" fill="none" xmlns="http://www.w3.org/2000/svg">
    <path d="M8.02083 14H13.4167C13.7387 14 14 13.7387 14 13.4167V10.5C14 10.178 13.7387 9.91667 13.4167 9.91667H8.02083C7.69883 9.91667 7.4375 10.178 7.4375 10.5V13.4167C7.4375 13.7387 7.69883 14 8.02083 14Z" fill="#6C7080"/>
    <path d="M6.5625 4.64958V4.2393V2.32467V1.91439V0.273283C6.5625 0.122301 6.30117 -0.000235081 5.97917 -0.000235081H0.583333C0.261333 -0.000235081 0 0.122301 0 0.273283L0 6.29069C0 6.44167 0.261333 6.56421 0.583333 6.56421H5.97917C6.30117 6.56421 6.5625 6.44167 6.5625 6.29069V4.64958Z" fill="#F6465D"/>
    <path d="M6.5625 12.0854V11.6751V9.76046V9.35019V7.70907C6.5625 7.55809 6.30117 7.43556 5.97917 7.43556H0.583333C0.261333 7.43556 0 7.55809 0 7.70907L0 13.7265C0 13.8775 0.261333 14 0.583333 14H5.97917C6.30117 14 6.5625 13.8775 6.5625 13.7265V12.0854Z" fill="#0ECB81"/>
    <path d="M8.02083 4.08325H13.4167C13.7387 4.08325 14 3.82192 14 3.49992V0.583252C14 0.261252 13.7387 -8.15392e-05 13.4167 -8.15392e-05H8.02083C7.69883 -8.15392e-05 7.4375 0.261252 7.4375 0.583252V3.49992C7.4375 3.82192 7.69883 4.08325 8.02083 4.08325Z" fill="#6C7080"/>
    <path d="M8.02083 9.0415H13.4167C13.7387 9.0415 14 8.78017 14 8.45817V5.5415C14 5.2195 13.7387 4.95817 13.4167 4.95817H8.02083C7.69883 4.95817 7.4375 5.2195 7.4375 5.5415V8.45817C7.4375 8.78017 7.69883 9.0415 8.02083 9.0415Z" fill="#6C7080"/>
</svg>



