<svg width="18" height="18" viewBox="0 0 18 18" fill="none" xmlns="http://www.w3.org/2000/svg">
<path d="M14.4444 5.36341C14.2382 5.36341 14.0403 5.44003 13.8945 5.57642C13.7486 5.7128 13.6667 5.89778 13.6667 6.09065V14.2291C13.6444 14.5969 13.4675 14.9415 13.1747 15.1879C12.8819 15.4343 12.4968 15.5626 12.1033 15.5447H5.89667C5.50319 15.5626 5.1181 15.4343 4.82528 15.1879C4.53247 14.9415 4.35564 14.5969 4.33333 14.2291V6.09065C4.33333 5.89778 4.25139 5.7128 4.10553 5.57642C3.95967 5.44003 3.76184 5.36341 3.55556 5.36341C3.34928 5.36341 3.15145 5.44003 3.00558 5.57642C2.85972 5.7128 2.77778 5.89778 2.77778 6.09065V14.2291C2.79998 14.9827 3.14068 15.6974 3.72525 16.2166C4.30983 16.7358 5.09063 17.0172 5.89667 16.9992H12.1033C12.9094 17.0172 13.6902 16.7358 14.2747 16.2166C14.8593 15.6974 15.2 14.9827 15.2222 14.2291V6.09065C15.2222 5.89778 15.1403 5.7128 14.9944 5.57642C14.8486 5.44003 14.6507 5.36341 14.4444 5.36341ZM15.2222 3.18171H12.1111V1.72724C12.1111 1.53436 12.0292 1.34939 11.8833 1.213C11.7374 1.07662 11.5396 1 11.3333 1H6.66667C6.46039 1 6.26256 1.07662 6.11669 1.213C5.97083 1.34939 5.88889 1.53436 5.88889 1.72724V3.18171H2.77778C2.5715 3.18171 2.37367 3.25833 2.22781 3.39471C2.08194 3.53109 2 3.71607 2 3.90894C2 4.10182 2.08194 4.28679 2.22781 4.42318C2.37367 4.55956 2.5715 4.63618 2.77778 4.63618H15.2222C15.4285 4.63618 15.6263 4.55956 15.7722 4.42318C15.9181 4.28679 16 4.10182 16 3.90894C16 3.71607 15.9181 3.53109 15.7722 3.39471C15.6263 3.25833 15.4285 3.18171 15.2222 3.18171ZM7.44444 3.18171V2.45447H10.5556V3.18171H7.44444Z" fill="#A4A7B7"/>
<path d="M8.2223 12.6358V7.54512C8.2223 7.35225 8.14036 7.16727 7.9945 7.03089C7.84864 6.89451 7.65081 6.81789 7.44453 6.81789C7.23825 6.81789 7.04042 6.89451 6.89455 7.03089C6.74869 7.16727 6.66675 7.35225 6.66675 7.54512V12.6358C6.66675 12.8286 6.74869 13.0136 6.89455 13.15C7.04042 13.2864 7.23825 13.363 7.44453 13.363C7.65081 13.363 7.84864 13.2864 7.9945 13.15C8.14036 13.0136 8.2223 12.8286 8.2223 12.6358ZM11.3334 12.6358V7.54512C11.3334 7.35225 11.2515 7.16727 11.1056 7.03089C10.9597 6.89451 10.7619 6.81789 10.5556 6.81789C10.3494 6.81789 10.1515 6.89451 10.0057 7.03089C9.8598 7.16727 9.77786 7.35225 9.77786 7.54512V12.6358C9.77786 12.8286 9.8598 13.0136 10.0057 13.15C10.1515 13.2864 10.3494 13.363 10.5556 13.363C10.7619 13.363 10.9597 13.2864 11.1056 13.15C11.2515 13.0136 11.3334 12.8286 11.3334 12.6358Z" fill="#A4A7B7"/>
</svg>
