<svg width="20" height="20" viewBox="0 0 20 20" fill="none" xmlns="http://www.w3.org/2000/svg">
    <path d="M18.3335 13.3333C18.1125 13.3333 17.9005 13.421 17.7442 13.5773C17.588 13.7336 17.5002 13.9456 17.5002 14.1666V17.4999H2.50016V14.1666C2.50016 13.9456 2.41237 13.7336 2.25609 13.5773C2.0998 13.421 1.88784 13.3333 1.66683 13.3333C1.44582 13.3333 1.23385 13.421 1.07757 13.5773C0.921293 13.7336 0.833496 13.9456 0.833496 14.1666V18.3333C0.833496 18.5543 0.921293 18.7662 1.07757 18.9225C1.23385 19.0788 1.44582 19.1666 1.66683 19.1666H18.3335C18.5545 19.1666 18.7665 19.0788 18.9228 18.9225C19.079 18.7662 19.1668 18.5543 19.1668 18.3333V14.1666C19.1668 13.9456 19.079 13.7336 18.9228 13.5773C18.7665 13.421 18.5545 13.3333 18.3335 13.3333Z" fill="currentColor"/>
    <path d="M9.41117 14.7558C9.56745 14.912 9.77937 14.9997 10.0003 14.9997C10.2213 14.9997 10.4332 14.912 10.5895 14.7558L15.5895 9.75575C15.7413 9.59858 15.8253 9.38808 15.8234 9.16958C15.8215 8.95109 15.7339 8.74208 15.5794 8.58757C15.4248 8.43306 15.2158 8.34542 14.9973 8.34352C14.7788 8.34162 14.5683 8.42562 14.4112 8.57742L10.8337 12.1549V1.66659C10.8337 1.44557 10.7459 1.23361 10.5896 1.07733C10.4333 0.921049 10.2214 0.833252 10.0003 0.833252C9.77933 0.833252 9.56736 0.921049 9.41108 1.07733C9.2548 1.23361 9.16701 1.44557 9.16701 1.66659V12.1549L5.58951 8.57742C5.43234 8.42562 5.22184 8.34162 5.00334 8.34352C4.78484 8.34542 4.57583 8.43306 4.42132 8.58757C4.26682 8.74208 4.17918 8.95109 4.17728 9.16958C4.17538 9.38808 4.25937 9.59858 4.41117 9.75575L9.41117 14.7558Z" fill="currentColor"/>
</svg>
