<svg width="12" height="12" viewBox="0 0 12 12" fill="none" xmlns="http://www.w3.org/2000/svg">
<path d="M7.4619 2.0026L9.90297 4.45555L3.72394 10.6647L1.28425 8.21176L7.4619 2.0026ZM11.7553 1.41101L10.6666 0.317075C10.2459 -0.105692 9.56277 -0.105692 9.14063 0.317075L8.09784 1.36495L10.5389 3.81793L11.7553 2.59563C12.0816 2.26771 12.0816 1.73891 11.7553 1.41101ZM0.00679293 11.6596C-0.0376314 11.8605 0.142879 12.0405 0.342834 11.9916L3.063 11.3289L0.623312 8.87595L0.00679293 11.6596Z" fill="#A4A7B7"/>
<path d="M11.3413 12H5.96559C5.80717 12 5.65525 11.9368 5.54323 11.8242C5.43122 11.7117 5.36829 11.559 5.36829 11.3998C5.36829 11.2406 5.43122 11.088 5.54323 10.9754C5.65525 10.8628 5.80717 10.7996 5.96559 10.7996H11.3413C11.4997 10.7996 11.6516 10.8628 11.7637 10.9754C11.8757 11.088 11.9386 11.2406 11.9386 11.3998C11.9386 11.559 11.8757 11.7117 11.7637 11.8242C11.6516 11.9368 11.4997 12 11.3413 12Z" fill="#A4A7B7"/>
</svg>
