<svg width="20" height="20" viewBox="0 0 20 20" fill="none" xmlns="http://www.w3.org/2000/svg">
    <path d="M10.0001 0.95H10C8.21008 0.95 6.46036 1.48077 4.97209 2.4752C3.48383 3.46963 2.32387 4.88304 1.63889 6.53671C0.953921 8.19038 0.774701 10.01 1.1239 11.7656C1.47309 13.5211 2.33502 15.1336 3.60069 16.3993C4.86635 17.665 6.47891 18.5269 8.23444 18.8761C9.98996 19.2253 11.8096 19.0461 13.4633 18.3611C15.117 17.6761 16.5304 16.5162 17.5248 15.0279C18.5192 13.5396 19.05 11.7899 19.05 10V9.99994C19.0473 7.60058 18.0929 5.30027 16.3963 3.60366C14.6997 1.90706 12.3994 0.952715 10.0001 0.95ZM13.55 9.9999V10.0001C13.5515 10.7865 13.4949 11.572 13.3805 12.35H6.61961C6.39347 10.7915 6.39347 9.2085 6.61961 7.65H13.3805C13.4949 8.42803 13.5515 9.21347 13.55 9.9999ZM10 17.75C9.40266 17.75 8.78156 17.3644 8.22638 16.6455C7.68093 15.9392 7.20472 14.9179 6.88405 13.65H13.116C12.7953 14.9179 12.3191 15.9392 11.7736 16.6455C11.2184 17.3644 10.5973 17.75 10 17.75ZM5.314 12.35H2.61799L2.61799 7.65H5.314C5.09534 9.20903 5.09534 10.791 5.314 12.35ZM10 2.25C10.5973 2.25 11.2184 2.63564 11.7736 3.35451C12.3191 4.06077 12.7953 5.08208 13.116 6.35H6.88405C7.20472 5.08208 7.68093 4.06077 8.22638 3.35451C8.78156 2.63564 9.40266 2.25 10 2.25ZM14.686 7.65H17.382C17.8725 9.17826 17.8725 10.8217 17.382 12.35H14.686C14.7947 11.5714 14.8495 10.7862 14.85 10V9.99997C14.8495 9.21378 14.7947 8.42859 14.686 7.65ZM14.8 10C14.7995 9.21378 14.7446 8.42857 14.6355 7.65L14.8 10ZM14.4531 6.35C14.1935 5.10692 13.7022 3.92423 13.0051 2.86366C14.6392 3.55549 15.989 4.78526 16.8295 6.35H14.4531ZM3.17051 6.35C4.01099 4.78526 5.3608 3.55549 6.99495 2.86366C6.29785 3.92423 5.80646 5.10692 5.54688 6.35H3.17051ZM5.54688 13.65C5.80646 14.8931 6.29785 16.0758 6.99495 17.1363C5.3608 16.4445 4.01099 15.2147 3.17051 13.65H5.54688ZM14.4531 13.65H16.8295C15.989 15.2147 14.6392 16.4445 13.0051 17.1363C13.7022 16.0758 14.1935 14.8931 14.4531 13.65Z" fill="currentColor" stroke="#6C7080" stroke-width="0.1"/>
</svg>
