<svg width="130" height="36" viewBox="0 0 130 36" fill="none" xmlns="http://www.w3.org/2000/svg">
    <path d="M30.9765 7.06537C31.6212 5.00494 30.4747 2.81205 28.4156 2.16741C26.3565 1.52277 24.1645 2.6705 23.5198 4.73093C22.875 6.79136 24.0215 8.98425 26.0806 9.62889C28.1398 10.2735 30.3317 9.1258 30.9765 7.06537Z" fill="#5367FE"/>
    <path d="M27.2456 30.3153C25.0885 30.3153 23.3391 28.5654 23.3391 26.4059V15.404C23.3391 13.2453 25.0877 11.4946 27.2456 11.4946C29.4028 11.4946 31.1522 13.2445 31.1522 15.404V26.4067C31.1522 28.5654 29.4036 30.3161 27.2456 30.3161V30.3153Z" fill="#5367FE"/>
    <path d="M3.90654 30.3159C6.06406 30.3159 7.81307 28.5656 7.81307 26.4065C7.81307 24.2474 6.06406 22.4971 3.90654 22.4971C1.74902 22.4971 0 24.2474 0 26.4065C0 28.5656 1.74902 30.3159 3.90654 30.3159Z" fill="#5367FE"/>
    <path d="M15.9185 11.4946H15.2339C13.2654 11.4946 11.6697 13.0916 11.6697 15.0615V26.7493C11.6697 28.7192 13.2654 30.3161 15.2339 30.3161H15.9185C17.887 30.3161 19.4827 28.7192 19.4827 26.7493V15.0615C19.4827 13.0916 17.887 11.4946 15.9185 11.4946Z" fill="#5367FE"/>
    <path d="M49.1033 30.2921H42.2156V11.065H49.1603C51.1146 11.065 52.797 11.4499 54.2075 12.2197C55.6179 12.9833 56.7026 14.0817 57.4616 15.515C58.2269 16.9483 58.6096 18.6632 58.6096 20.6598C58.6096 22.6626 58.2269 24.3838 57.4616 25.8233C56.7026 27.2628 55.6116 28.3675 54.1885 29.1373C52.7717 29.9072 51.0767 30.2921 49.1033 30.2921ZM46.3236 26.809H48.9326C50.1469 26.809 51.1684 26.5962 51.9969 26.1706C52.8318 25.7388 53.458 25.0722 53.8754 24.171C54.2992 23.2634 54.5111 22.093 54.5111 20.6598C54.5111 19.239 54.2992 18.078 53.8754 17.1767C53.458 16.2754 52.835 15.612 52.0064 15.1864C51.1779 14.7608 50.1564 14.548 48.942 14.548H46.3236V26.809Z" fill="white"/>
    <path d="M61.5767 30.2921V15.8718H65.6183V30.2921H61.5767ZM63.607 14.0129C63.0061 14.0129 62.4907 13.8157 62.0606 13.4214C61.6368 13.0209 61.4249 12.5421 61.4249 11.985C61.4249 11.4342 61.6368 10.9617 62.0606 10.5674C62.4907 10.1668 63.0061 9.96655 63.607 9.96655C64.2078 9.96655 64.7202 10.1668 65.1439 10.5674C65.574 10.9617 65.7891 11.4342 65.7891 11.985C65.7891 12.5421 65.574 13.0209 65.1439 13.4214C64.7202 13.8157 64.2078 14.0129 63.607 14.0129Z" fill="white"/>
    <path d="M75.421 36.0001C74.1118 36.0001 72.9891 35.8217 72.053 35.465C71.1233 35.1145 70.3833 34.6357 69.833 34.0286C69.2827 33.4215 68.9254 32.7393 68.7609 31.982L72.4989 31.4844C72.6128 31.7723 72.793 32.0414 73.0397 32.2918C73.2864 32.5421 73.6121 32.7424 74.0169 32.8926C74.428 33.0491 74.9277 33.1273 75.5159 33.1273C76.395 33.1273 77.1192 32.9145 77.6885 32.4889C78.264 32.0696 78.5518 31.3655 78.5518 30.3766V27.7385H78.381C78.2039 28.139 77.9383 28.5177 77.5841 28.8745C77.2299 29.2312 76.7745 29.5222 76.2179 29.7476C75.6613 29.9729 74.9972 30.0855 74.2256 30.0855C73.1314 30.0855 72.1352 29.8352 71.2371 29.3345C70.3453 28.8275 69.6338 28.0545 69.1025 27.0156C68.5775 25.9704 68.315 24.6498 68.315 23.0538C68.315 21.4202 68.5838 20.0558 69.1215 18.9605C69.6591 17.8652 70.3738 17.0453 71.2656 16.5008C72.1637 15.9562 73.1472 15.684 74.2161 15.684C75.032 15.684 75.7151 15.8217 76.2654 16.0971C76.8156 16.3662 77.2584 16.7042 77.5936 17.111C77.9351 17.5116 78.1976 17.9059 78.381 18.2939H78.5328V15.8718H82.5459V30.4329C82.5459 31.6596 82.2423 32.6861 81.6352 33.5122C81.028 34.3384 80.1868 34.958 79.1115 35.3711C78.0426 35.7905 76.8125 36.0001 75.421 36.0001ZM75.5064 27.0813C76.1578 27.0813 76.7081 26.9217 77.1572 26.6025C77.6126 26.277 77.9604 25.8139 78.2008 25.213C78.4474 24.6059 78.5708 23.8799 78.5708 23.035C78.5708 22.19 78.4506 21.4578 78.2103 20.8381C77.9699 20.2122 77.622 19.7272 77.1667 19.383C76.7113 19.0387 76.1578 18.8666 75.5064 18.8666C74.8423 18.8666 74.2825 19.045 73.8271 19.4017C73.3717 19.7522 73.027 20.2404 72.793 20.8663C72.559 21.4922 72.442 22.2151 72.442 23.035C72.442 23.8674 72.559 24.5872 72.793 25.1943C73.0334 25.7951 73.3781 26.2614 73.8271 26.5931C74.2825 26.9186 74.8423 27.0813 75.5064 27.0813Z" fill="white"/>
    <path d="M85.7621 30.2921V15.8718H89.8037V30.2921H85.7621ZM87.7924 14.0129C87.1915 14.0129 86.6761 13.8157 86.246 13.4214C85.8222 13.0209 85.6103 12.5421 85.6103 11.985C85.6103 11.4342 85.8222 10.9617 86.246 10.5674C86.6761 10.1668 87.1915 9.96655 87.7924 9.96655C88.3932 9.96655 88.9056 10.1668 89.3293 10.5674C89.7594 10.9617 89.9745 11.4342 89.9745 11.985C89.9745 12.5421 89.7594 13.0209 89.3293 13.4214C88.9056 13.8157 88.3932 14.0129 87.7924 14.0129Z" fill="white"/>
    <path d="M93.1171 30.2921V11.065H100.897C102.326 11.065 103.518 11.2746 104.473 11.694C105.428 12.1133 106.146 12.6954 106.627 13.4402C107.108 14.1787 107.348 15.0299 107.348 15.9938C107.348 16.7449 107.196 17.4052 106.893 17.9747C106.589 18.538 106.172 19.0012 105.64 19.3642C105.115 19.7209 104.514 19.9744 103.838 20.1246V20.3124C104.578 20.3437 105.27 20.5502 105.915 20.932C106.567 21.3138 107.095 21.8489 107.5 22.5374C107.905 23.2196 108.107 24.0333 108.107 24.9783C108.107 25.9985 107.851 26.9092 107.339 27.7103C106.833 28.5052 106.083 29.1342 105.09 29.5973C104.097 30.0605 102.873 30.2921 101.418 30.2921H93.1171ZM97.2251 26.9686H100.574C101.719 26.9686 102.554 26.7527 103.079 26.3209C103.604 25.8827 103.866 25.3007 103.866 24.5746C103.866 24.0426 103.737 23.5732 103.477 23.1664C103.218 22.7596 102.848 22.4404 102.367 22.2088C101.893 21.9772 101.327 21.8614 100.669 21.8614H97.2251V26.9686ZM97.2251 19.1107H100.271C100.833 19.1107 101.333 19.0137 101.77 18.8197C102.212 18.6194 102.56 18.3377 102.813 17.9747C103.072 17.6117 103.202 17.1767 103.202 16.6698C103.202 15.975 102.952 15.4149 102.453 14.9893C101.959 14.5637 101.257 14.3509 100.346 14.3509H97.2251V19.1107Z" fill="white"/>
    <path d="M110.704 30.2921V15.8718H114.746V30.2921H110.704ZM112.734 14.0129C112.134 14.0129 111.618 13.8157 111.188 13.4214C110.764 13.0209 110.552 12.5421 110.552 11.985C110.552 11.4342 110.764 10.9617 111.188 10.5674C111.618 10.1668 112.134 9.96655 112.734 9.96655C113.335 9.96655 113.848 10.1668 114.271 10.5674C114.701 10.9617 114.916 11.4342 114.916 11.985C114.916 12.5421 114.701 13.0209 114.271 13.4214C113.848 13.8157 113.335 14.0129 112.734 14.0129Z" fill="white"/>
    <path d="M125.734 15.8718V18.876H116.959V15.8718H125.734ZM118.951 12.4169H122.993V25.8608C122.993 26.2301 123.049 26.518 123.163 26.7245C123.277 26.9248 123.435 27.0657 123.638 27.147C123.846 27.2284 124.087 27.2691 124.359 27.2691C124.548 27.2691 124.738 27.2534 124.928 27.2221C125.118 27.1846 125.263 27.1564 125.364 27.1376L126 30.1137C125.798 30.1763 125.513 30.2483 125.146 30.3296C124.779 30.4173 124.333 30.4705 123.808 30.4892C122.834 30.5268 121.981 30.3985 121.247 30.1043C120.519 29.8101 119.953 29.3533 119.549 28.7336C119.144 28.114 118.945 27.3317 118.951 26.3866V12.4169Z" fill="white"/>
</svg>
