<svg width="10" height="10" viewBox="0 0 10 10" fill="none" xmlns="http://www.w3.org/2000/svg">
    <path d="M9.97393 3.64061C9.90847 3.43812 9.72887 3.2943 9.51639 3.27515L6.63011 3.01308L5.4888 0.341729C5.40465 0.145954 5.21299 0.0192261 5.00005 0.0192261C4.78711 0.0192261 4.59545 0.145954 4.5113 0.342187L3.36999 3.01308L0.483257 3.27515C0.271154 3.29476 0.0920116 3.43812 0.0261682 3.64061C-0.0396751 3.8431 0.0211327 4.0652 0.181583 4.2052L2.36326 6.11855L1.71994 8.95241C1.67286 9.16077 1.75374 9.37615 1.92662 9.50113C2.01955 9.56827 2.12827 9.60245 2.23791 9.60245C2.33244 9.60245 2.42621 9.57697 2.51036 9.52661L5.00005 8.03861L7.48882 9.52661C7.67094 9.63617 7.90052 9.62618 8.07302 9.50113C8.24598 9.37577 8.32678 9.16031 8.27971 8.95241L7.63638 6.11855L9.81806 4.20558C9.97851 4.0652 10.0398 3.84348 9.97393 3.64061Z" fill="currentColor"/>
</svg>
